<?xml version="1.0" encoding="utf-8"?>
<!-- Generator: Adobe Illustrator 24.0.3, SVG Export Plug-In . SVG Version: 6.00 Build 0)  -->
<svg version="1.1" id="Layer_1" xmlns="http://www.w3.org/2000/svg" xmlns:xlink="http://www.w3.org/1999/xlink" x="0px" y="0px"
	 viewBox="0 0 447.8 208.3" style="enable-background:new 0 0 447.8 208.3;" xml:space="preserve">
<style type="text/css">
	.st0{fill:#231F20;}
	.st1{fill:none;}
</style>
<g>
	<g>
		<path class="st0" d="M150.9,140.3V133h-1.8v-1.9c1.4-0.1,1.9-0.5,2.2-1.4h2.5v10.6H150.9z"/>
		<path class="st0" d="M162.2,140.5c-2.8,0-4.8-1.9-4.8-5.5c0-3.5,2.1-5.5,4.8-5.5c2.8,0,4.8,1.9,4.8,5.5
			C167,138.5,165,140.5,162.2,140.5z M162.2,132.1c-1.1,0-1.8,1-1.8,2.9c0,1.9,0.7,3,1.8,3c1.1,0,1.8-1,1.8-2.9
			C164,133.1,163.4,132.1,162.2,132.1z"/>
		<path class="st0" d="M175.1,140.5c-2.8,0-4.8-1.9-4.8-5.5c0-3.5,2.1-5.5,4.8-5.5c2.8,0,4.8,1.9,4.8,5.5
			C179.9,138.5,177.8,140.5,175.1,140.5z M175.1,132.1c-1.1,0-1.8,1-1.8,2.9c0,1.9,0.7,3,1.8,3c1.1,0,1.8-1,1.8-2.9
			C176.9,133.1,176.2,132.1,175.1,132.1z"/>
		<path class="st0" d="M186.1,136.1c-1.8,0-3.1-1.1-3.1-3.3c0-2.2,1.4-3.3,3.2-3.3c1.8,0,3.1,1.1,3.1,3.3
			C189.2,135,187.8,136.1,186.1,136.1z M186.1,131.2c-0.6,0-0.9,0.4-0.9,1.6c0,1.3,0.3,1.7,0.9,1.7c0.6,0,0.9-0.4,0.9-1.6
			C187,131.6,186.7,131.2,186.1,131.2z M188.6,140.3h-2.3l6.5-10.6h2.3L188.6,140.3z M195.2,140.5c-1.8,0-3.1-1.1-3.1-3.3
			s1.4-3.3,3.2-3.3c1.8,0,3.1,1.1,3.1,3.3C198.4,139.4,197,140.5,195.2,140.5z M195.3,135.5c-0.6,0-0.9,0.4-0.9,1.6
			c0,1.3,0.3,1.7,0.9,1.7s0.9-0.4,0.9-1.6C196.2,135.9,195.9,135.5,195.3,135.5z"/>
		<path class="st0" d="M238.9,140.3l-0.6-1.9h-3.2l-0.6,1.9h-3.2l3.9-10.6h3l3.9,10.6H238.9z M237.5,135.4c-0.4-1.4-0.5-1.9-0.7-2.7
			c-0.1,0.7-0.3,1.3-0.7,2.7l-0.2,0.7h1.8L237.5,135.4z"/>
		<path class="st0" d="M250.4,140.5c-2.9,0-4.9-2-4.9-5.5c0-3.1,1.7-5.5,4.9-5.5c2.7,0,3.7,1,4.4,3l-2.7,1c-0.3-0.9-0.8-1.5-1.8-1.5
			c-1.4,0-1.9,1.2-1.9,2.9c0,2.1,0.7,3,2,3c1.2,0,1.7-0.6,1.8-1.3h-1.9v-2.2h4.7v1.3C255.1,138.8,253.5,140.5,250.4,140.5z"/>
		<path class="st0" d="M266.2,140.3l-0.6-1.9h-3.2l-0.6,1.9h-3.2l3.9-10.6h3l3.9,10.6H266.2z M264.7,135.4c-0.4-1.4-0.5-1.9-0.7-2.7
			c-0.1,0.7-0.3,1.3-0.7,2.7l-0.2,0.7h1.8L264.7,135.4z"/>
		<path class="st0" d="M278,140.3h-3l-3.7-10.6h3.3l0.8,2.9c0.4,1.3,0.9,3.5,1.1,4.5c0.2-1,0.7-3.2,1.1-4.5l0.8-2.9h3.3L278,140.3z"
			/>
		<path class="st0" d="M285.8,140.3v-10.6h8.1v2.5h-5.2v1.4h3.1v2.4h-3.1v1.8h5.3v2.5H285.8z"/>
	</g>
	<path class="st0" d="M220.5,61.9l-0.4-0.1c0,0-1.1,2.8-3,3.9c-1.2,0.7-2.5,0.7-5,0.8c-1.6,0-7.3,0-7.3,0s4.3-6.2,7-10
		c2.9-4,7.8-10.4,7.8-10.4l-0.2-0.3c-1.2,0.3-2.8,0.3-4.2,0.3c-3.5,0-6.6,0-9.7-0.1c-2.6-0.1-2.7-0.7-2.9-1.1l-0.4-0.1l-1.9,6.6
		l0.4,0.1c0,0,0.7-2.3,2.5-3.3c1.6-0.9,3.9-0.8,5.4-0.8c2.3-0.1,5.6,0,5.6,0s-3.4,5-5.8,8.4c-3.3,4.6-8.8,12-8.8,12l0.2,0.4
		c1.3-0.2,3.8-0.2,5.8-0.2c2.1,0,8.2,0,9.7,0.1c2.6,0.1,2.8,0.5,2.9,0.9h0.4L220.5,61.9z"/>
	<path class="st0" d="M242.3,62.3l-0.4-0.1c-0.5,1.2-1,2.5-2.2,3.5c-1.3,1.1-2.8,1.6-4.7,1.6c-5.1,0-9.7-3.9-9.7-11.3
		c0-5.9,4.3-9.3,8.7-9.3c2.4,0,4.9,0.6,6.1,2.1c0.8,1,1,3.2,1,3.2h0.5c0.1-3.5,0.6-6.2,0.6-6.2l-0.4-0.1c-0.4,0.4-0.4,0.7-1.1,0.7
		c-0.3,0-2.9-1-6.5-1c-8.1,0-13.3,5.3-13.3,11.8c0,7.6,6.6,11.4,13.3,11.4c2.1,0,3.4-0.5,4.3-0.5c0.9,0,1.6,0.2,1.6,0.2
		C241.5,66.1,242.3,62.3,242.3,62.3"/>
	<path class="st0" d="M256.9,57.5h-6.4c1.2-3.4,3.2-8.3,3.2-8.3h0L256.9,57.5z M267.8,68.2v-0.5c-1.4-0.1-3.5-0.6-4.8-3.8
		c-2.3-5.9-6.2-16.2-6.2-16.2c0.2-0.6,0.9-1.2,2.6-1.3v-0.5h-10v0.5c1.1,0.1,2.7,0.2,3.4,1.4c0,0-3.9,10.2-6,15.2
		c-1,2.4-1.8,3.5-2.6,4c-1,0.7-2.6,0.8-2.6,0.8v0.5h9.3v-0.5c-0.7-0.1-2.9-0.1-2.9-2.1c0-0.4,0.2-1.1,0.3-1.6
		c0.5-1.6,1.6-4.7,1.6-4.7h7.6c0,0,0.6,1.6,1.4,4c0.3,0.8,0.5,1.7,0.5,2.4c0,1.9-2.4,1.9-3.4,2.1v0.5H267.8z"/>
	<path class="st0" d="M288.4,62.6l-0.4-0.2c0,0-0.7,1.6-1.8,2.9c-0.9,1.1-3,1.6-4.8,1.6c-2.3,0-4.3-0.5-4.8-1.5
		c-0.2-4.2-0.2-6.8-0.2-8.9c0-1.7,0-4,0.2-6.5c0.1-1.5,0.2-2.6,1-3c0.9-0.5,2.8-0.6,2.8-0.6v-0.5h-11v0.5c0,0,1.7,0.1,2.6,0.6
		c0.7,0.4,0.8,1.3,0.9,3.1c0.1,3.1,0.1,5.3,0.1,6.6c0,1.9,0,5-0.1,7c-0.1,2.3-0.5,2.9-1.1,3.3c-0.8,0.6-2.7,0.7-2.7,0.7v0.5h17.5
		L288.4,62.6z"/>
	<path class="st0" d="M199,63.1l-0.4-0.1c0,0-0.7,1.5-1.5,2.2c-1,1-2.1,1.8-5.4,1.8c-1.1,0-2.1-0.2-2.5-0.4
		c-0.4-0.5-0.7-0.9-0.9-2.9c-0.2-1.3-0.5-6-0.5-6s4.9,0,6.2,0.1c1.1,0.3,1.3,2.5,1.3,2.5h0.4v-6.8h-0.4c0,0-0.1,1-0.3,1.5
		c-0.3,0.6-0.4,1-2.8,1.1c-1.4,0.1-4.5,0.1-4.5,0.1c-0.1-2.7-0.4-6.1-0.5-8.7c0,0,4,0,5.7,0.1c1.8,0.1,2.7,0.2,3.3,0.9
		c0.6,0.7,0.7,2.3,0.7,2.3h0.4l0.3-5.3h-0.4c-0.3,0.6-1.2,0.6-3.3,0.6h-4.5c-4.9,0-8.6,0-8.6,0v0.5c0,0,2.8,0.2,3.1,1.6
		c-2.5,5.5-5.6,10.4-7.5,14.2c-2.3-5.4-4.8-10.1-6.6-14.3c0.5-1.3,2.7-1.4,2.7-1.4v-0.5h-9.8v0.5c0,0,1.3,0.2,1.9,0.5
		c1.1,0.7,1.3,1.1,1.9,2.3c0,0-1,8.3-1.7,12.4c-0.4,2.4-0.8,4.6-2.3,5.4c-1.1,0.6-2.4,0.7-2.4,0.7v0.5h9.9v-0.4c0,0-1.6-0.2-2.4-0.6
		c-0.9-0.5-1.2-1-1.2-2.4c0-3.2,1.3-13.2,1.3-13.2h0.1c1.9,4.6,4.3,9.1,5.9,13.3c0.5,1.3,1.2,3.4,1.2,3.4h0.4c0,0,1.1-3.2,2.1-5.1
		c2.6-5.3,5.5-9.9,6.3-11.9h0.1c0.1,3.4,0.7,7.9,0.7,11.6c0,2.1,0,2.9-1,3.9c-0.9,0.9-2.7,0.9-2.7,0.9v0.5h16.3L199,63.1z"/>
	<path class="st0" d="M76.2,108.5c0-8.9-8.6-11-14.8-14.4c-3.5-2-6.8-4.2-6.8-8.2c0-4.8,3.9-7,7.9-7c3.8,0,7.1,1.4,8.4,3
		c1.8,2.3,2.2,3.9,2.5,6l0.9-0.1l-0.5-11.1H73c0,0-0.6,1.3-1.5,1.3c-0.6,0-4.2-1.5-9.8-1.5c-8.2,0-13.8,5.3-13.8,11.4
		c0,9.1,7.2,11.2,13.6,14.6c4.6,2.4,7.6,4.3,7.6,9.2c0,5.5-4.6,8-9.7,8c-5.4,0-8.9-3-9.8-4.2c-1.5-2.1-2.3-4.2-2.9-7.1l-0.9,0.1
		l1,13.2h0.8l1-2c1.3,0.5,4.7,2.6,10.8,2.6C69.3,122.1,76.2,116.8,76.2,108.5"/>
	<path class="st0" d="M103.1,100.2H90.3c2.4-6.7,6.3-16.5,6.3-16.5h0.1L103.1,100.2z M124.6,121.4v-0.9c-2.8-0.3-7-1.1-9.5-7.6
		c-4.5-11.7-12.3-32.2-12.3-32.2c0.3-1.2,1.7-2.3,5.1-2.6v-1H87.9v1c2.2,0.2,5.3,0.4,6.8,2.7c0,0-7.8,20.3-11.8,30.2
		c-1.9,4.7-3.6,7-5.1,8c-2,1.3-5.3,1.5-5.3,1.5v0.9H91v-0.9c-1.4-0.3-5.7-0.1-5.7-4.2c0-0.8,0.4-2.2,0.7-3.2
		c0.9-3.2,3.1-9.4,3.1-9.4h15.2c0,0,1.1,3.1,2.9,8c0.6,1.6,1.1,3.4,1.1,4.8c0,3.7-4.7,3.9-6.7,4.1v0.9H124.6z"/>
	<path class="st0" d="M158.3,109.7l-0.9-0.3c-1,2.3-2,4.9-4.3,7c-2.5,2.3-5.5,3.2-9.3,3.2c-10.2,0-19.3-7.8-19.3-22.5
		c0-11.7,8.6-18.4,17.4-18.4c4.7,0,9.8,1.2,12.1,4.1c1.5,1.9,1.9,6.4,1.9,6.4h1c0.3-7,1.1-12.3,1.1-12.3l-0.8-0.1
		c-0.7,0.7-0.9,1.4-2.2,1.4c-0.7,0-5.8-2-12.9-2c-16.1,0-26.3,10.4-26.3,23.4c0,15.1,13,22.7,26.4,22.7c4.1,0,6.8-0.9,8.6-0.9
		c1.7,0,3.2,0.3,3.2,0.3C156.8,117.3,158.3,109.7,158.3,109.7"/>
	<path class="st0" d="M186.7,90c0,6.3-5.1,9.5-7,10.1l-7-0.8c0,0,0-14.2,0.1-20C178.5,79.3,186.7,81.7,186.7,90 M232.8,111.9
		l-0.9-0.7c-3.4,4.7-7.3,7.6-13.5,7.6c-5.3,0-9.9-1.7-16.2-5.6c-6.8-4.2-16.6-13.5-16.6-13.5c3.3-1.7,8.8-4.8,8.8-11.1
		c0-7.9-8.2-11.5-18.6-11.5c-5.7,0-17.5,0.2-17.5,0.2v1c0,0,3.9,0.4,5.5,1.6c1.5,1.1,1.8,2.7,2,7.2c0.1,2.5,0.3,8.2,0.3,13
		c0,3.9-0.1,10-0.3,12.6c-0.2,2.6-0.3,5.3-2,6.7c-1.6,1.3-5.2,1.3-5.2,1.3v0.9h21.8v-0.9c0,0-2.3-0.1-4.2-0.7c-3-0.9-3-4.1-3.2-7.3
		c-0.1-1.9-0.3-9.4-0.3-9.4l6.3-1.1c5.2,5,10.2,10.1,16.1,14.5c5.3,4,10.9,6.5,17.9,6.5C223.2,123,228.7,117.6,232.8,111.9"/>
	<path class="st0" d="M264.2,75.7h-0.7c-0.6,1.3-2.5,1.4-6.6,1.4c-4.9,0-11.2,0.1-15.3,0.1c-4.4,0-11.1-0.1-11.1-0.1V78
		c0,0,3.9,0.4,5.7,1.5c1.5,1,1.5,3.2,1.7,6.7c0.1,2.8,0.3,9.2,0.3,13.4c0,3.6,0,8.8-0.3,13.3c-0.1,2.2-0.2,4.7-2,6.1
		c-1.6,1.3-5.5,1.4-5.5,1.4v0.9h22.7v-0.9c0,0-2.8-0.3-4.7-0.9c-2.7-0.9-3-2.9-3.2-6.3c-0.3-5.3-0.3-12.9-0.3-12.9s7,0,11.1,0.1
		c2.8,0,3.7,1.1,4.1,2.2c0.5,1.5,0.7,3.3,0.7,3.3h0.8V92.1h-0.8c-0.3,1.6-0.5,2.8-1.3,3.9c-0.6,0.8-2,1-3.4,1.1
		c-4.4,0.1-11.2,0.3-11.2,0.3s-0.1-12,0.1-17.5c0,0,6.4-0.1,9.8,0.1c2.5,0.1,4.6,0.3,6,1.2c1.6,1.1,1.6,3.4,1.9,4.9h0.8L264.2,75.7z
		"/>
	<path class="st0" d="M288.4,78v-0.9h-22.9V78c0,0,4.4,0.4,5.8,1.5c1.5,1.1,1.8,2.6,1.9,6.5c0.1,5.1,0.1,7.7,0.1,12.5
		c0,5.2,0,10.3-0.2,14.4c-0.2,3.7-0.7,5.6-2.5,6.3c-1.8,0.8-5.3,1.1-5.3,1.1v1h22.9v-1c0,0-3.9-0.4-5.5-1.2c-2.1-1.1-2.2-3-2.3-6.3
		c-0.2-4.1-0.2-9.2-0.2-14.4c0-5,0-8.4,0.2-12.8c0.1-2.7,0.1-4.8,2.1-6.2C284.1,78.4,288.4,78,288.4,78"/>
	<path class="st0" d="M354.5,78v-0.9h-22.9V78c0,0,4.4,0.4,5.8,1.5c1.5,1.1,1.8,2.6,1.9,6.5c0.1,5.1,0.1,7.7,0.1,12.5
		c0,5.2,0,10.3-0.2,14.4c-0.2,3.7-0.7,5.6-2.5,6.3c-1.8,0.8-5.3,1.1-5.3,1.1v1h22.9v-1c0,0-3.9-0.4-5.5-1.2c-2.1-1.1-2.2-3-2.3-6.3
		c-0.2-4.1-0.2-9.2-0.2-14.4c0-5,0-8.4,0.2-12.8c0.1-2.7,0.1-4.8,2.1-6.2C350.1,78.4,354.5,78,354.5,78"/>
	<path class="st0" d="M393.5,99.5c0,11.4-4.9,20.6-15.1,20.6c-9.2,0-16.2-8.4-16.2-21.3c0-10.1,4.7-20.3,14.9-20.3
		C387.5,78.6,393.5,88.4,393.5,99.5 M402.3,99c0-14.1-11.3-22.9-24.2-22.9c-13.7,0-24.7,10-24.7,23.4c0,14.2,11.9,23.1,24.1,23.1
		C390.8,122.7,402.3,113,402.3,99"/>
	<path class="st0" d="M328.9,109.7l-0.9-0.3c-1,2.3-2,4.9-4.3,7c-2.5,2.3-5.5,3.2-9.3,3.2c-10.2,0-19.3-7.8-19.3-22.5
		c0-11.7,8.6-18.4,17.4-18.4c4.7,0,9.8,1.2,12.1,4.1c1.5,1.9,1.9,6.4,1.9,6.4h0.9c0.3-7,1.1-12.3,1.1-12.3l-0.8-0.1
		c-0.7,0.7-0.9,1.4-2.2,1.4c-0.7,0-5.8-2-12.9-2c-16.1,0-26.3,10.4-26.3,23.4c0,15.1,13,22.7,26.4,22.7c4.1,0,6.8-0.9,8.6-0.9
		c1.7,0,3.2,0.3,3.2,0.3C327.4,117.3,328.9,109.7,328.9,109.7"/>
	<path class="st0" d="M222.6,105.2v-0.8c0,0-3.4-0.4-4.3-1.1c-1.3-0.9-1.4-3.1-1.5-5.1c-0.1-1.6-0.1-4.8-0.1-7c0-2.2,0-5.4,0.1-7
		c0.2-2.5,0.1-4.1,1.5-5.1c1.1-0.8,4.2-1.1,4.2-1.1v-0.8h-17.2v0.8c0,0,2.3,0.2,3.7,0.8c1.6,0.7,1.8,2.7,1.9,5.3
		c0.1,2.2,0.1,5.2,0.1,7.2c0,1.7-0.1,5.4-0.1,6.9c-0.1,1.8-0.1,4.1-1.5,5.2c-0.9,0.8-4.2,1.1-4.2,1.1v0.8H222.6z"/>
	<path class="st0" d="M401.8,78.6h0.8c0.4,0,1,0.1,1,0.6c0,0.6-0.4,0.7-0.9,0.7h-0.8V78.6z M400.8,82.6h0.9v-2h0.6l1.2,2h1l-1.3-2.1
		c0.7-0.1,1.2-0.4,1.2-1.3c0-1-0.7-1.4-1.9-1.4h-1.8V82.6z M399.3,80.2c0-1.9,1.4-3.3,3.2-3.3c1.8,0,3.2,1.4,3.2,3.3
		c0,1.9-1.4,3.4-3.2,3.4C400.8,83.6,399.3,82.2,399.3,80.2 M398.2,80.2c0,2.6,2.1,4.3,4.4,4.3c2.3,0,4.4-1.7,4.4-4.3
		c0-2.6-2.1-4.2-4.4-4.2C400.2,76,398.2,77.7,398.2,80.2"/>
	<path class="st0" d="M213.8,126.6c0,0,0.3,1.3-1.1,5.2c-1.8,5.1-4.7,9.5-3.9,12.5c2,7.2,10.8,6.7,12.3,0
		C222.6,137.3,213.8,126.6,213.8,126.6"/>
	<rect class="st1" width="447.8" height="208.3"/>
</g>
</svg>
